<svg xmlns="http://www.w3.org/2000/svg" width="18.333" height="20" viewBox="260.833 209 18.333 20"><path d="M275 209h-8.333a4.167 4.167 0 0 0-3.814 2.5h-1.186a.833.833 0 1 0 0 1.667h.833v1.666h-.833a.833.833 0 0 0 0 1.667h.833v1.667h-.833a.833.833 0 0 0 0 1.666h.833v1.667h-.833a.833.833 0 0 0 0 1.667h.833v1.666h-.833a.833.833 0 1 0 0 1.667h1.186a4.167 4.167 0 0 0 3.814 2.5H275a4.172 4.172 0 0 0 4.167-4.167v-11.666A4.172 4.172 0 0 0 275 209Zm2.5 15.833a2.5 2.5 0 0 1-2.5 2.5h-8.333a2.5 2.5 0 0 1-2.5-2.5v-11.666a2.5 2.5 0 0 1 2.5-2.5H275a2.5 2.5 0 0 1 2.5 2.5v11.666ZM270.833 219a2.5 2.5 0 1 0 0-5 2.5 2.5 0 0 0 0 5Zm4.167 5a.833.833 0 0 1-1.667 0 2.5 2.5 0 1 0-5 0 .833.833 0 0 1-1.666 0c.176-5.507 8.159-5.505 8.333 0Z" fill="#584d2c" fill-rule="evenodd" data-name="address-book"/></svg>