<svg version="1.1" id="_x32_" xmlns="http://www.w3.org/2000/svg" xmlns:xlink="http://www.w3.org/1999/xlink" viewBox="-51.2 -51.2 614.40 614.40" xml:space="preserve" width="217px" height="217px" fill="#584D2C" stroke="#584D2C" stroke-width="0.00512"><g id="SVGRepo_bgCarrier" stroke-width="0"></g><g id="SVGRepo_tracerCarrier" stroke-linecap="round" stroke-linejoin="round" stroke="#CCCCCC" stroke-width="1.024"> <style type="text/css"> .st0{fill:#584D2C;} </style> <g> <path class="st0" d="M407.788,190.202h-92.16V82.62c-0.01-45.642-36.978-82.61-82.62-82.62H104.212 C58.57,0.01,21.602,36.978,21.591,82.62V512H58.6V82.62c0.01-12.65,5.08-23.936,13.363-32.249 c8.314-8.284,19.599-13.353,32.249-13.364h128.796c12.65,0.01,23.936,5.08,32.249,13.364c8.283,8.313,13.353,19.599,13.363,32.249 V512h37.008V227.21h92.16c12.65,0.01,23.936,5.08,32.249,13.364c8.284,8.313,13.353,19.599,13.364,32.249V512h37.008V272.822 C490.398,227.18,453.43,190.212,407.788,190.202z"></path> <rect x="111.321" y="131.597" class="st0" width="31.808" height="53.976"></rect> <rect x="189.975" y="131.597" class="st0" width="31.808" height="53.976"></rect> <rect x="111.321" y="254.971" class="st0" width="31.808" height="53.976"></rect> <rect x="189.975" y="254.971" class="st0" width="31.808" height="53.976"></rect> <rect x="111.321" y="378.345" class="st0" width="31.808" height="53.976"></rect> <rect x="189.975" y="378.345" class="st0" width="31.808" height="53.976"></rect> <rect x="363.47" y="289.67" class="st0" width="31.808" height="53.976"></rect> <rect x="363.47" y="407.903" class="st0" width="31.808" height="53.976"></rect> </g> </g><g id="SVGRepo_iconCarrier"> <style type="text/css"> .st0{fill:#584D2C;} </style>
<g> <path class="st0" d="M407.788,190.202h-92.16V82.62c-0.01-45.642-36.978-82.61-82.62-82.62H104.212 C58.57,0.01,21.602,36.978,21.591,82.62V512H58.6V82.62c0.01-12.65,5.08-23.936,13.363-32.249 c8.314-8.284,19.599-13.353,32.249-13.364h128.796c12.65,0.01,23.936,5.08,32.249,13.364c8.283,8.313,13.353,19.599,13.363,32.249 V512h37.008V227.21h92.16c12.65,0.01,23.936,5.08,32.249,13.364c8.284,8.313,13.353,19.599,13.364,32.249V512h37.008V272.822 C490.398,227.18,453.43,190.212,407.788,190.202z"></path> <rect x="111.321" y="131.597" class="st0" width="31.808" height="53.976"></rect> <rect x="189.975" y="131.597" class="st0" width="31.808" height="53.976"></rect> <rect x="111.321" y="254.971" class="st0" width="31.808" height="53.976"></rect> <rect x="189.975" y="254.971" class="st0" width="31.808" height="53.976"></rect> <rect x="111.321" y="378.345" class="st0" width="31.808" height="53.976"></rect> <rect x="189.975" y="378.345" class="st0" width="31.808" height="53.976"></rect> <rect x="363.47" y="289.67" class="st0" width="31.808" height="53.976"></rect> <rect x="363.47" y="407.903" class="st0" width="31.808" height="53.976"></rect> </g> </g></svg>