<svg xmlns="http://www.w3.org/2000/svg" width="23.341" height="28.009" viewBox="1210.052 488.048 23.341 28.009"><g data-name="trash"><path d="M1232.226 492.716h-3.618a5.846 5.846 0 0 0-5.719-4.668h-2.334a5.846 5.846 0 0 0-5.718 4.668h-3.618a1.167 1.167 0 0 0 0 2.334h1.167v15.172a5.842 5.842 0 0 0 5.835 5.835h7.002a5.842 5.842 0 0 0 5.836-5.835V495.05h1.167a1.167 1.167 0 0 0 0-2.334Zm-11.67-2.334h2.333a3.508 3.508 0 0 1 3.302 2.334h-8.937a3.508 3.508 0 0 1 3.301-2.334Zm8.169 19.84a3.501 3.501 0 0 1-3.502 3.5h-7.002a3.501 3.501 0 0 1-3.501-3.5V495.05h14.005v15.172Z" fill="#f4f4f4" fill-rule="evenodd" data-name="Path 103"/><path d="M1219.388 509.054c.645 0 1.167-.522 1.167-1.167v-7.002a1.167 1.167 0 0 0-2.334 0v7.002c0 .645.523 1.167 1.167 1.167Z" fill="#f4f4f4" fill-rule="evenodd" data-name="Path 104"/><path d="M1224.056 509.054c.645 0 1.167-.522 1.167-1.167v-7.002a1.167 1.167 0 1 0-2.334 0v7.002c0 .645.523 1.167 1.167 1.167Z" fill="#f4f4f4" fill-rule="evenodd" data-name="Path 105"/></g></svg>