<svg xmlns="http://www.w3.org/2000/svg" width="19.787" height="20" viewBox="260.106 303 19.787 20"><g data-name="Mask Group 70" clip-path="url(&quot;#a&quot;)"><g data-name="sign-out-alt"><path d="M269.67 315.5a.833.833 0 0 0-.834.833v2.5a2.5 2.5 0 0 1-2.5 2.5h-2.063a2.5 2.5 0 0 1-2.5-2.5v-11.666a2.5 2.5 0 0 1 2.5-2.5h2.063a2.5 2.5 0 0 1 2.5 2.5v2.5a.833.833 0 0 0 1.667 0v-2.5a4.172 4.172 0 0 0-4.167-4.167h-2.063a4.172 4.172 0 0 0-4.167 4.167v11.666a4.172 4.172 0 0 0 4.167 4.167h2.063a4.172 4.172 0 0 0 4.167-4.167v-2.5a.833.833 0 0 0-.833-.833Z" fill="#584d2c" fill-rule="evenodd" data-name="Path 401"/><path d="m279.162 311.232-3.821-3.821a.833.833 0 1 0-1.179 1.178l3.553 3.553-12.609.025a.833.833 0 0 0 0 1.666l12.657-.025-3.602 3.603a.833.833 0 1 0 1.178 1.178l3.822-3.822a2.5 2.5 0 0 0 .001-3.534Z" fill="#584d2c" fill-rule="evenodd" data-name="Path 402"/></g></g><defs><clipPath id="a"><path d="M0 0h20v20H0V0z" data-name="Rectangle 299" transform="translate(260 303)"/></clipPath></defs></svg>