<svg xmlns="http://www.w3.org/2000/svg" width="29" height="29" viewBox="1216 837 29 29"><g data-name="edit"><path d="m1238.543 838.124-14.732 14.732a6 6 0 0 0-1.77 4.271v1.623c0 .667.542 1.208 1.209 1.208h1.623a6 6 0 0 0 4.271-1.769l14.732-14.732a3.776 3.776 0 0 0 0-5.333 3.86 3.86 0 0 0-5.333 0Zm3.625 3.625-14.732 14.732a3.65 3.65 0 0 1-2.563 1.06h-.415v-.414a3.65 3.65 0 0 1 1.061-2.563l14.732-14.732a1.387 1.387 0 0 1 1.917 0c.528.53.528 1.387 0 1.917Z" fill="#fff" fill-rule="evenodd" data-name="Path 107"/><path d="M1243.792 847.85c-.668 0-1.209.54-1.209 1.208v6.067h-4.833a3.625 3.625 0 0 0-3.625 3.625v4.833h-12.083a3.625 3.625 0 0 1-3.625-3.625v-16.916a3.625 3.625 0 0 1 3.625-3.625h10.925a1.208 1.208 0 1 0 0-2.417h-10.925a6.049 6.049 0 0 0-6.042 6.042v16.916a6.049 6.049 0 0 0 6.042 6.042h13.706a6.003 6.003 0 0 0 4.272-1.769l3.21-3.212a6.003 6.003 0 0 0 1.77-4.271v-7.69c0-.667-.541-1.208-1.208-1.208Zm-5.48 14.672c-.486.485-1.1.82-1.77.967v-4.739c0-.667.54-1.208 1.208-1.208h4.743a3.644 3.644 0 0 1-.967 1.769l-3.214 3.211Z" fill="#fff" fill-rule="evenodd" data-name="Path 108"/></g></svg>