<svg xmlns="http://www.w3.org/2000/svg" width="30" height="22.501" viewBox="844 420.75 30 22.501"><g data-name="Mask Group 20" clip-path="url(&quot;#a&quot;)"><g data-name="01 align center"><path d="M873.777 430.976c-1.098-2.4-5.401-10.226-14.777-10.226-9.375 0-13.679 7.826-14.776 10.226-.298.651-.298 1.4 0 2.05 1.097 2.398 5.401 10.224 14.776 10.224 9.376 0 13.68-7.826 14.777-10.226a2.46 2.46 0 0 0 0-2.048ZM859 440.75c-7.884 0-11.562-6.707-12.5-8.736.938-2.057 4.616-8.764 12.5-8.764 7.866 0 11.546 6.679 12.5 8.75-.954 2.071-4.634 8.75-12.5 8.75Z" fill="#584d2c" fill-rule="evenodd" data-name="Path 54"/><path d="M859 425.75a6.25 6.25 0 1 0 6.25 6.25 6.258 6.258 0 0 0-6.25-6.25Zm0 10a3.75 3.75 0 1 1 0-7.5 3.75 3.75 0 0 1 0 7.5Z" fill="#584d2c" fill-rule="evenodd" data-name="Path 55"/></g></g><defs><clipPath id="a"><path d="M0 0h30v30H0V0z" data-name="Rectangle 498" transform="translate(844 417)"/></clipPath></defs></svg>