<svg xmlns="http://www.w3.org/2000/svg" width="18.963" height="18.05" viewBox="261 256.95 18.963 18.05"><g data-name="Group 17806"><path d="M0 4.305a4.406 4.405 0 1 1 0 .1z" stroke-linejoin="round" stroke-linecap="round" stroke-width="2" stroke="#584d2c" fill="transparent" transform="matrix(.77301 0 0 .773 266.148 256.989)" data-name="Ellipse 134"/><path d="M5.076 0h8.811a5.076 5.076 0 0 1 5.076 5.076v5.076h0H0h0V5.076A5.076 5.076 0 0 1 5.076 0z" stroke-linejoin="round" stroke-linecap="round" stroke-width="2" stroke="#584d2c" fill="transparent" transform="matrix(.89453 0 0 .80299 261 266.849)" data-name="Rectangle 601"/><g data-name="following"><path d="M278.633 262.46a1.4 1.4 0 0 0-1.33 1.462 1.4 1.4 0 0 0-1.328-1.462 1.4 1.4 0 0 0-1.329 1.462c0 1.15 1.5 2.496 2.246 3.096a.66.66 0 0 0 .824 0c.747-.598 2.245-1.947 2.245-3.096a1.4 1.4 0 0 0-1.328-1.462Z" fill="#584d2c" fill-rule="evenodd" data-name="Path 408"/></g></g></svg>