<svg xmlns="http://www.w3.org/2000/svg" width="59.253" height="37.978" viewBox="7.513 10.511 59.253 37.978"><g data-name="Flag_of_Palestine"><g data-name="Group 17736"><path d="M10.054 48.234c.019-.229.69-.958 5.928-6.461l5.904-6.207H64.244v12.923H10.035l.018-.255Z" fill="#009639" fill-rule="evenodd" data-name="Path 116"/></g><g data-name="Group 17737"><path d="M16.107 17.166c-4.752-4.985-5.969-6.303-5.969-6.453l-.006-.202H64.243v12.923H22.076l-5.969-6.268Z" fill-rule="evenodd" data-name="Path 117"/></g><g data-name="Group 17738"><path d="M7.513 35.689c0-.15.923-.88 4.044-3.209 2.215-1.661 4.035-3.042 4.035-3.068 0-.026-1.776-1.371-3.947-2.989-3.631-2.708-3.948-2.963-3.956-3.209 0-.193.026-.228.105-.15.08.08 6.76.106 29.539.106h29.433v12.66l-29.627.017-29.626.027v-.185Z" fill="#fff" fill-rule="evenodd" data-name="Path 118"/></g><g data-name="Group 17739"><g data-name="Path 119"><path d="M10.044 29.5c0-18.655 0-18.989.167-18.989.097 0 .185.035.202.07.018.035 5.635 4.273 12.484 9.407 6.857 5.134 12.466 9.371 12.466 9.424 0 .053-5.61 4.29-12.458 9.415-6.857 5.135-12.527 9.407-12.615 9.495-.079.097-.167.167-.193.167-.027 0-.053-8.545-.053-18.989Z" fill="#ed2e38" fill-rule="evenodd"/><path d="M10.044 29.5c0-18.655 0-18.989.167-18.989.097 0 .185.035.202.07.018.035 5.635 4.273 12.484 9.407 6.857 5.134 12.466 9.371 12.466 9.424 0 .053-5.61 4.29-12.458 9.415-6.857 5.135-12.527 9.407-12.615 9.495-.079.097-.167.167-.193.167-.027 0-.053-8.545-.053-18.989Z" stroke-linejoin="round" stroke-linecap="round" stroke-width=".088" stroke="red" fill="transparent"/></g></g></g></svg>