<svg xmlns="http://www.w3.org/2000/svg" width="40.902" height="40.902" viewBox="812 449.098 40.902 40.902"><path d="M832.45 449.098c-11.276 0-20.45 9.174-20.45 20.451 0 11.277 9.174 20.451 20.45 20.451 11.278 0 20.452-9.174 20.452-20.45 0-11.278-9.174-20.452-20.451-20.452Zm-5.356 30.677c-1.232 0-2.469-.445-3.408-1.386l-.89-1.023a1.948 1.948 0 0 1 0-2.754l2.22-1.704c.76-.76 1.993-.76 2.753 0l1.822 1.45c3.53-1.348 6.134-3.844 7.67-7.669l-1.451-1.821a1.948 1.948 0 0 1 0-2.755l1.704-2.218c.76-.76 1.994-.76 2.754 0l1.023.89c.94.938 1.385 2.175 1.385 3.408 0 6.817-9.252 15.582-15.582 15.582Z" fill="#1bd741" fill-rule="evenodd" data-name="circle-phone-flip"/></svg>