<svg xmlns="http://www.w3.org/2000/svg" width="33.917" height="37" viewBox="444.542 525 33.917 37"><g data-name="Mask Group 74" clip-path="url(&quot;#a&quot;)"><path d="M465.417 533.436c1.844-1.572 3.791-3.928 3.791-6.894V525h-15.416v1.542c0 2.966 1.947 5.32 3.79 6.894-7.253 2.585-13.04 11.797-13.04 19.314 0 5.101 4.148 9.25 9.25 9.25h15.416c5.102 0 9.25-4.149 9.25-9.25 0-7.517-5.787-16.729-13.04-19.314Zm-8.223-5.353h8.607c-.803 1.937-2.913 3.562-4.29 4.397-1.16-.709-3.47-2.33-4.315-4.397Zm12.014 30.834h-15.416a6.173 6.173 0 0 1-6.167-6.167c0-7.957 7.076-16.932 13.872-16.932s13.878 8.977 13.878 16.932c0 3.4-2.766 6.167-6.167 6.167Zm-10.791-13.875c0 .582.417 1.076.993 1.171l4.69.782a4.258 4.258 0 0 1 3.568 4.213 4.63 4.63 0 0 1-4.625 4.625v1.542h-3.083v-1.542a4.63 4.63 0 0 1-4.625-4.625h3.083c0 .85.692 1.542 1.542 1.542h3.083c.85 0 1.542-.692 1.542-1.542 0-.582-.418-1.076-.993-1.171l-4.69-.782a4.258 4.258 0 0 1-3.569-4.213 4.63 4.63 0 0 1 4.625-4.625v-1.542h3.084v1.542a4.63 4.63 0 0 1 4.625 4.625h-3.084c0-.85-.692-1.542-1.541-1.542h-3.084c-.85 0-1.541.692-1.541 1.542Z" fill="#584d2c" fill-rule="evenodd" data-name="sack-dollar (1)"/></g><defs><clipPath id="a"><path d="M0 0h37v37H0V0z" data-name="Rectangle 41" transform="translate(443 525)"/></clipPath></defs></svg>