<svg xmlns="http://www.w3.org/2000/svg" width="31.982" height="28" viewBox="531.65 1339.65 31.982 28"><g data-name="triangle-warning (2)"><path d="M546.656 1356v-8c0-.733.6-1.333 1.333-1.333s1.333.6 1.333 1.333v8c0 .733-.6 1.333-1.333 1.333s-1.333-.6-1.333-1.333Zm1.333 2.667c-1.107 0-2 .893-2 2 0 1.106.893 2 2 2s2-.894 2-2c0-1.107-.893-2-2-2Zm15.44 6.506c-.933 1.8-2.893 2.827-5.347 2.827H537.91c-2.467 0-4.413-1.027-5.347-2.827-.946-1.813-.68-4.133.667-6.08l10.72-16.96c.947-1.36 2.44-2.133 4.04-2.133s3.093.773 4 2.093l10.773 17.027c1.347 1.947 1.6 4.253.654 6.053Zm-2.867-4.56s-.026-.026-.026-.053l-10.76-17c-.387-.547-1.054-.893-1.787-.893-.733 0-1.4.346-1.813.946l-10.734 16.947c-.826 1.173-1.013 2.453-.533 3.373.467.907 1.533 1.4 2.987 1.4h20.16c1.453 0 2.52-.493 2.986-1.4.48-.92.294-2.2-.493-3.32Z" fill="#584d2c" fill-rule="evenodd"/><path d="M546.656 1356v-8c0-.733.6-1.333 1.333-1.333s1.333.6 1.333 1.333v8c0 .733-.6 1.333-1.333 1.333s-1.333-.6-1.333-1.333Zm1.333 2.667c-1.107 0-2 .893-2 2 0 1.106.893 2 2 2s2-.894 2-2c0-1.107-.893-2-2-2Zm15.44 6.506c-.933 1.8-2.893 2.827-5.347 2.827H537.91c-2.467 0-4.413-1.027-5.347-2.827-.946-1.813-.68-4.133.667-6.08l10.72-16.96c.947-1.36 2.44-2.133 4.04-2.133s3.093.773 4 2.093l10.773 17.027c1.347 1.947 1.6 4.253.654 6.053Zm-2.867-4.56s-.026-.026-.026-.053l-10.76-17c-.387-.547-1.054-.893-1.787-.893-.733 0-1.4.346-1.813.946l-10.734 16.947c-.826 1.173-1.013 2.453-.533 3.373.467.907 1.533 1.4 2.987 1.4h20.16c1.453 0 2.52-.493 2.986-1.4.48-.92.294-2.2-.493-3.32Z" stroke-linejoin="round" stroke-linecap="round" stroke-width=".7" stroke="#584d2c" fill="transparent"/></g></svg>