<svg xmlns="http://www.w3.org/2000/svg" width="28.322" height="28.322" viewBox="922.678 1339.744 28.322 28.322"><g data-name="Mask Group 46" transform="translate(69.678 -3.257)" clip-path="url(&quot;#a&quot;)"><g data-name="01 align center"><path d="M854.711 1350.846a2.36 2.36 0 0 0-1.02 3.939l4.026 4.022v7.773h7.781l4.054 4.048a2.345 2.345 0 0 0 2.264.616 2.334 2.334 0 0 0 1.676-1.628l7.83-26.616-26.61 7.846Zm.657 2.27 20.096-5.925-15.384 15.36v-4.721l-4.712-4.714Zm15.862 15.843-4.753-4.74h-4.721l15.382-15.368-5.908 20.108Z" fill="#584d2c" fill-rule="evenodd" data-name="Path 67"/></g></g><defs><clipPath id="a"><path d="M0 0h28v28H0V0z" data-name="Rectangle 161" transform="translate(853.322 1343.257)"/></clipPath></defs></svg>