<svg xmlns="http://www.w3.org/2000/svg" width="36.979" height="37" viewBox="832.01 524.999 36.979 37"><g data-name="Mask Group 73" clip-path="url(&quot;#a&quot;)"><g data-name="area"><path d="M836.63 525.103c-.86.188-1.243.456-2.776 1.916-1.742 1.67-1.844 1.808-1.844 2.459 0 .405.03.527.196.766.39.557.997.781 1.64.607.261-.065.485-.245 1.18-.918l.853-.839.014 12.105.022 12.104.202.65a5.937 5.937 0 0 0 3.92 3.92l.65.202 12.068.022 12.06.014-.83.86c-.666.687-.854.926-.919 1.18-.304 1.12.68 2.096 1.808 1.792.274-.072.527-.296 1.865-1.612 1.417-1.41 1.57-1.576 1.83-2.111.542-1.114.542-2.177-.015-3.283-.246-.492-.434-.709-1.815-2.083-1.338-1.316-1.59-1.54-1.865-1.612a1.5 1.5 0 0 0-1.663.629c-.145.217-.181.354-.181.738 0 .592.065.7 1.15 1.8l.802.81-11.967-.015-11.966-.021-.39-.16c-.81-.332-1.367-.882-1.686-1.662l-.166-.42-.022-12.003-.014-12.003.81.803c1.099 1.077 1.207 1.15 1.793 1.15.39 0 .52-.037.76-.203.563-.383.787-.983.614-1.641-.072-.29-.26-.5-1.613-1.83-1.684-1.64-2.068-1.916-2.993-2.11-.593-.131-.933-.131-1.511 0Z" fill="#584d2c" fill-rule="evenodd" data-name="Path 409"/><path d="M845.539 525.045c-.333.087-.694.412-.882.796-.333.672-.138 1.366.513 1.815l.29.195 9.833.036 9.834.036.274.174c.152.094.362.303.47.462l.196.297.036 9.87.036 9.877.195.289c.275.39.615.607 1.056.665.499.058 1.063-.21 1.36-.65l.209-.304.022-9.812c.021-10.911.043-10.376-.463-11.41-.369-.745-1.164-1.54-1.909-1.91-1.02-.498-.499-.476-11.244-.47-5.329.008-9.754.03-9.826.044Z" fill="#584d2c" fill-rule="evenodd" data-name="Path 410"/><path d="M859.096 532.883c-.94.181-1.858.897-2.292 1.765-.282.564-.44 1.366-.361 1.786.115.629.752 1.142 1.417 1.142s1.316-.528 1.41-1.15c.087-.52.116-.593.29-.672.23-.101.498-.03.606.188.087.152.073.217-.108.542-.31.579-1.287 1.743-2.437 2.914-.867.882-1.055 1.114-1.135 1.388a1.452 1.452 0 0 0 1.186 1.815c.159.03 1.258.036 2.43.022 2.096-.022 2.14-.022 2.407-.195.152-.094.362-.304.47-.463.16-.246.195-.376.195-.766 0-.846-.491-1.367-1.373-1.432-.26-.022-.47-.058-.47-.072 0-.022.159-.239.354-.485.81-1.02 1.323-2.017 1.417-2.755a3.223 3.223 0 0 0-.029-.824c-.303-1.866-2.111-3.116-3.977-2.748Z" fill="#584d2c" fill-rule="evenodd" data-name="Path 411"/><path d="M842.618 537.945c-.333.101-.788.578-.882.925-.051.195-.073 1.83-.058 5.127l.021 4.83.196.296c.296.449.65.637 1.214.637s.919-.188 1.215-.637l.195-.296.036-3.652c.037-3.644.037-3.658.196-3.882.426-.6 1.352-.6 1.778 0 .16.224.16.238.196 3.882l.036 3.652.195.296c.297.449.65.637 1.215.637.564 0 .918-.188 1.215-.637l.195-.296.036-3.652c.036-3.644.036-3.658.195-3.882.47-.658 1.519-.579 1.858.144.102.217.116.665.116 3.717v3.47l.203.384c.159.31.274.426.585.585.492.26.825.26 1.316 0 .311-.159.427-.274.586-.585l.202-.384v-3.52c0-2.199-.029-3.689-.08-3.956-.274-1.504-1.619-2.849-3.159-3.145-.925-.174-2.003.029-2.834.542l-.434.267-.477-.289c-.709-.426-1.15-.542-2.09-.542-.579 0-.89.036-1.143.13-.34.123-.354.123-.592-.029-.29-.18-.904-.246-1.251-.137Z" fill="#584d2c" fill-rule="evenodd" data-name="Path 412"/></g></g><defs><clipPath id="a"><path d="M0 0h37v37H0V0z" data-name="Rectangle 40" transform="translate(832 525)"/></clipPath></defs></svg>