<svg xmlns="http://www.w3.org/2000/svg" width="31.873" height="31.983" viewBox="372 453.016 31.873 31.983"><g data-name="Group 17806"><g data-name="Ellipse 134"><path d="M380.22 460a7.034 7.034 0 1 1 0 .1z" fill="#584d2c" fill-rule="evenodd"/><path d="M0 6.934a7.034 7.034 0 1 1 0 .1z" stroke-linejoin="round" stroke-linecap="round" stroke-width="3.5" stroke="#584d2c" fill="transparent" transform="matrix(.75121 0 0 .7512 381.97 454.804)"/></g><g data-name="Rectangle 601"><path d="M380.104 468.791h14.069a8.104 8.104 0 0 1 8.104 8.104V485H372v-8.104a8.104 8.104 0 0 1 8.104-8.104z" fill="#584d2c" fill-rule="evenodd"/><path d="M8.104 0h14.069a8.104 8.104 0 0 1 8.104 8.104v8.104h0H0h0V8.104A8.104 8.104 0 0 1 8.104 0z" stroke-linejoin="round" stroke-linecap="round" stroke-width="3.5" stroke="#584d2c" fill="transparent" transform="matrix(.8844 0 0 .78406 373.75 470.541)"/></g><g data-name="following"><path d="M401.75 463.381a2.235 2.235 0 0 0-2.122 2.334 2.235 2.235 0 0 0-2.122-2.334 2.235 2.235 0 0 0-2.122 2.334c0 1.835 2.394 3.985 3.586 4.942.384.308.93.308 1.315 0 1.193-.954 3.586-3.107 3.586-4.942a2.235 2.235 0 0 0-2.122-2.334Z" fill="#584d2c" fill-rule="evenodd" data-name="Path 408"/></g></g></svg>