<svg xmlns="http://www.w3.org/2000/svg" width="33.902" height="34.065" viewBox="1231 1337 33.902 34.065"><g data-name="WA_Logo"><g data-name="Group 17565"><path d="M1259.964 1341.95a16.772 16.772 0 0 0-11.941-4.95c-9.304 0-16.877 7.57-16.881 16.88a16.85 16.85 0 0 0 2.254 8.439l-2.396 8.746 8.948-2.348a16.863 16.863 0 0 0 8.066 2.056h.007c9.303 0 16.876-7.573 16.88-16.881a16.772 16.772 0 0 0-4.937-11.941Zm-11.941 25.971h-.006c-2.518 0-4.986-.677-7.141-1.956l-.512-.304-5.31 1.393 1.418-5.178-.334-.53a13.988 13.988 0 0 1-2.145-7.467c.003-7.735 6.298-14.029 14.037-14.029a13.93 13.93 0 0 1 9.918 4.113 13.948 13.948 0 0 1 4.105 9.926c-.004 7.739-6.298 14.032-14.03 14.032Zm7.695-10.508c-.421-.211-2.495-1.232-2.882-1.372-.386-.14-.667-.212-.95.21-.282.421-1.089 1.372-1.336 1.655-.245.281-.492.316-.914.105-.421-.212-1.781-.656-3.392-2.094-1.253-1.118-2.1-2.5-2.346-2.922-.246-.423-.026-.65.184-.86.19-.189.422-.493.633-.74.213-.244.283-.42.425-.702.14-.281.07-.528-.036-.74-.106-.21-.95-2.286-1.3-3.13-.342-.824-.69-.712-.95-.725a16.246 16.246 0 0 0-.808-.014c-.281 0-.739.105-1.125.528-.386.423-1.476 1.443-1.476 3.519s1.512 4.082 1.722 4.363c.21.28 2.974 4.542 7.205 6.368 1.006.435 1.792.695 2.404.889 1.01.32 1.93.275 2.657.167.81-.12 2.495-1.02 2.847-2.005.352-.985.352-1.831.246-2.006-.105-.177-.386-.282-.808-.494Z" fill="#1bd741" fill-rule="evenodd" data-name="Path 15"/></g></g></svg>