<svg xmlns="http://www.w3.org/2000/svg" xmlns:xlink="http://www.w3.org/1999/xlink" width="343" height="133" viewBox="0 0 343 133">
  <defs>
    <clipPath id="clip-path">
      <path id="Path_115" data-name="Path 115" d="M0,0H343V133H0Z" transform="translate(760 927)" fill="#fff" stroke="#3b351d" stroke-width="1"/>
    </clipPath>
  </defs>
  <g id="Mask_Group_62" data-name="Mask Group 62" transform="translate(-760 -927)" clip-path="url(#clip-path)">
    <g id="undraw_body_text_re_9riw" transform="translate(845.02 927)">
      <path id="Path_120" data-name="Path 120" d="M90.508,50.512c1.3.244,2.209,1.818,2.533,3.414a41.365,41.365,0,0,1,.35,4.911c.131,1.638.576,3.377,1.666,4.3a3.9,3.9,0,0,1-2.72-2.4,1.9,1.9,0,0,1-.625,1.734,3.528,3.528,0,0,1-1.517.667l-4.439,1.145a3.748,3.748,0,0,1-2.438.076A5.039,5.039,0,0,1,81.2,61.551a16.5,16.5,0,0,1-1.284-4.335,8.149,8.149,0,0,1,.584-4.49,5.731,5.731,0,0,1,3.662-2.991,13.452,13.452,0,0,1,4.477-.232,4.846,4.846,0,0,1,2.484.612" transform="translate(-63.634 -46.086)" fill="#272312"/>
      <path id="Path_121" data-name="Path 121" d="M25.921,126.155h3.1L30.5,114.189H25.92Z" fill="#b5934e"/>
      <path id="Path_122" data-name="Path 122" d="M93.689,172.52v-2.1l-.816.05-3.32.2-.768.047-.587,7.043-.031.378h2.2l.071-.375.32-1.7.826,1.7.181.375h5.84a1.32,1.32,0,0,0,1.311-1.314C99.165,175.667,94.308,173.179,93.689,172.52Z" transform="translate(-63.634 -46.086)" fill="#272312"/>
      <path id="Path_123" data-name="Path 123" d="M63.792,116.714l2.613-1.671-5.2-10.876-3.857,2.467Z" fill="#b5934e"/>
      <path id="Path_124" data-name="Path 124" d="M131.06,160.808l-1.133-1.772-.66.481-2.691,1.954-.622.454,3.3,6.25.177.335,1.856-1.187-.142-.354-.649-1.608,1.614.991.354.218,4.92-3.146a1.319,1.319,0,0,0,.4-1.813C137.368,160.509,131.936,161.029,131.06,160.808Z" transform="translate(-63.634 -46.086)" fill="#272312"/>
      <path id="Path_125" data-name="Path 125" d="M195.657,63.785H144.516a1.1,1.1,0,1,1,0-2.206h51.141a1.1,1.1,0,0,1,0,2.206Z" transform="translate(-63.634 -46.086)" fill="#dfd7be"/>
      <path id="Path_126" data-name="Path 126" d="M195.657,87.3H144.516a1.1,1.1,0,1,1,0-2.206h51.141a1.1,1.1,0,0,1,0,2.206Z" transform="translate(-63.634 -46.086)" fill="#584d2c"/>
      <path id="Path_127" data-name="Path 127" d="M221.545,75.552H144.516a1.1,1.1,0,1,1,0-2.206h77.029a1.1,1.1,0,1,1,0,2.206Z" transform="translate(-63.634 -46.086)" fill="#584d2c"/>
      <path id="Path_128" data-name="Path 128" d="M196.759,90.617a.25.25,0,0,1-.25-.25V82.034a.25.25,0,1,1,.5,0v8.333A.25.25,0,0,1,196.759,90.617Z" transform="translate(-63.634 -46.086)" fill="#3f3d56"/>
      <path id="Path_129" data-name="Path 129" d="M139.044,58.433a.25.25,0,0,1,.25-.25h8.333a.25.25,0,0,1,0,.5h-8.333a.25.25,0,0,1-.25-.25Z" transform="translate(-63.634 -46.086)" fill="#3b351d"/>
      <path id="Path_130" data-name="Path 130" d="M143.461,67.1a.25.25,0,0,1-.25-.25V58.516a.25.25,0,1,1,.5,0v8.333a.25.25,0,0,1-.25.25Z" transform="translate(-63.634 -46.086)" fill="#3b351d"/>
      <path id="Path_131" data-name="Path 131" d="M97.79,94.329,80.087,97.4l.16,2.692s-3.406,11.62-1.586,15.135,3.188,12.718,3.188,12.718-6.751,35.87,1.411,36.6,17.95-.022,17.935-2.4-6.3-45.729-6.3-45.729,10.534,23.048,12.535,23.066,2,.018,2,1.77-2.5.378,0,2.941,5.977,13.8,8.993,13.686,16.84-8.336,16.808-10.355S97.79,94.329,97.79,94.329Z" transform="translate(-63.634 -46.086)" fill="#584d2c"/>
      <path id="Path_132" data-name="Path 132" d="M80.123,98l.79-9.044L77.1,74.8s-.79-7.06,1.514-7.586a21.8,21.8,0,0,1,3.14-.567L83.3,63.687h5.248l2.62,2.5s3.5,2.252,3.5,3.252,3.731,20.872,3.117,21.319-.771,1.042.058,1.12,2.33-.422,1.329.578a6.141,6.141,0,0,0-1.387,2.415Z" transform="translate(-63.634 -46.086)" fill="#dfd7be"/>
      <path id="Path_133" data-name="Path 133" d="M118.419,96.024a2.407,2.407,0,0,0-3.194-1.8L107,85.5l-2.974,1.683,9.85,10.294a2.4,2.4,0,0,0,4.547-1.451Z" transform="translate(-63.634 -46.086)" fill="#b5934e"/>
      <path id="Path_134" data-name="Path 134" d="M86.368,66.215s-1.47,5.617.789,7.58,4.03,4.056,5.175,4.5,6.586,7.028,7.66,7.058.488,1.366,2.048,1.74,1.975.3,2.046.718,4.5,4.745,4.5,4.745l3.21-2.91L96.387,69.9a10.125,10.125,0,0,0-10.019-3.688Z" transform="translate(-63.634 -46.086)" fill="#dfd7be"/>
      <path id="Path_135" data-name="Path 135" d="M124.167,94.265,77.28,114.685a1.1,1.1,0,0,1-.881-2.022l46.887-20.42a1.1,1.1,0,0,1,.881,2.022Z" transform="translate(-63.634 -46.086)" fill="#272312"/>
      <path id="Path_136" data-name="Path 136" d="M144.391,176.508a.3.3,0,0,0,.221-.527l-.021-.083.008-.02a.817.817,0,0,1,1.508.006,7.257,7.257,0,0,1,.638,1.817,2.418,2.418,0,0,1-.042.832,9.693,9.693,0,0,0,.882-4.026,9.358,9.358,0,0,0-.058-1.044q-.048-.426-.133-.846a9.806,9.806,0,0,0-1.945-4.156,2.61,2.61,0,0,1-1.085-1.126,1.991,1.991,0,0,1-.181-.544,2.456,2.456,0,0,0,.159-.847c.074-.112.205-.167.286-.276.4-.542.951-.448,1.239.289.615.31.62.825.243,1.319-.24.315-.273.741-.483,1.078l.066.082a9.868,9.868,0,0,1,1.03,1.632,4.1,4.1,0,0,1,.245-1.906,6.871,6.871,0,0,1,1.061-1.531.842.842,0,0,1,1.5.413l0,.022q-.086.049-.169.1a.413.413,0,0,0,.166.751h.008a4.107,4.107,0,0,1-.108.614c.5,1.92-.575,2.619-2.106,2.65l-.1.051a10.074,10.074,0,0,1,.542,2.552,9.555,9.555,0,0,1-.007,1.543l0-.018a2.525,2.525,0,0,1,.862-1.458,18.973,18.973,0,0,1,2.316-1.183.474.474,0,0,1,.726.461l0,.019a2.775,2.775,0,0,0-.311.15q-.086.049-.169.1a.413.413,0,0,0,.166.751h.008l.017,0a4.111,4.111,0,0,1-.756,1.184c-.31,1.676-1.644,1.835-3.07,1.347h0a10.071,10.071,0,0,1-.676,1.975h-2.417c-.009-.027-.016-.055-.024-.081a2.745,2.745,0,0,0,.669-.04l-.538-.662-.011-.013-.274-.337h0a4.023,4.023,0,0,1,.118-1.025Z" transform="translate(-63.634 -46.086)" fill="#f2f2f2"/>
      <path id="Path_137" data-name="Path 137" d="M63.932,179.009l97.506.077a.3.3,0,1,0,0-.6l-97.506-.077a.3.3,0,1,0,0,.6Z" transform="translate(-63.634 -46.086)" fill="#cacaca"/>
      <circle id="Ellipse_70" data-name="Ellipse 70" cx="5.833" cy="5.833" r="5.833" transform="translate(16.503 4.549)" fill="#b5934e"/>
      <path id="Path_138" data-name="Path 138" d="M83.431,56.822c-.011-.49-.812-.568-1.107-.177a1.814,1.814,0,0,0-.134,1.42l.627,3.467c.248,1.371.6,2.9,1.778,3.642a4.743,4.743,0,0,1-2.792.592c-.948-.2-1.759-1.281-1.3-2.135a3.492,3.492,0,0,1-1.03,1.745,1.3,1.3,0,0,1-1.262.22c-.83-.333-.428-1.533-.8-2.34-1.06-2.317-2.058-4.546-.377-6.638.241-.3.05-.878.049-1.417,0-2.909,2.966-5.489,5.8-6.145q.091-.021.174-.037a5.783,5.783,0,0,1,4.5,1.028,1.858,1.858,0,0,1,2.423.328c.621.649,1.784,1.671,1.94,2.555s-.182,1.715.25,2.5a4.3,4.3,0,0,1-3.271-.815c-.472.914-1.688,1.084-2.716,1.108s-2.227.1-2.807.953" transform="translate(-63.634 -46.086)" fill="#272312"/>
      <path id="Path_139" data-name="Path 139" d="M149.641,46.086c-6.607.149-13.215.276-19.821.446a5.253,5.253,0,0,0-3.538,1.01A4.63,4.63,0,0,0,125.156,51c-.048,3.257.032,6.521.05,9.779l.061,11.18c0,.483.613.464.751,0,1.909-6.454,6.574-12.908-.106-19.362-.879-.849-.171-2.653.371-3.794.565-1.192,1.862-1.445,3.062-1.5,1.54-.075,3.086-.076,4.628-.11l4.807-.108,10.862-.245a.376.376,0,0,0,0-.751Z" transform="translate(-63.634 -46.086)" fill="#dfd7be"/>
      <path id="Path_140" data-name="Path 140" d="M212.1,96.1c6.607-.149,13.215-.276,19.821-.446a5.253,5.253,0,0,0,3.538-1.01,4.63,4.63,0,0,0,1.126-3.459c.048-3.257-.032-6.521-.05-9.779l-.061-11.18a.376.376,0,0,0-.751,0c-.728,6.454-7.78,12.909.106,19.362.946.774.171,2.653-.371,3.794-.565,1.192-1.862,1.445-3.062,1.5-1.54.075-3.086.076-4.628.11l-4.807.108-10.862.245a.376.376,0,0,0,0,.751Z" transform="translate(-63.634 -46.086)" fill="#dfd7be"/>
      <path id="Path_141" data-name="Path 141" d="M164.308,165.88,135.5,153.926a1.519,1.519,0,0,1-.821-1.986l6.791-16.368a1.519,1.519,0,0,1,1.986-.821l36.34,15.077a1.519,1.519,0,0,1,.821,1.986l-3.668,8.841a9.669,9.669,0,0,1-12.636,5.226Z" transform="translate(-63.634 -46.086)" fill="#f2f2f2"/>
      <path id="Path_142" data-name="Path 142" d="M162.467,164.067,142.5,155.781a7.735,7.735,0,0,1-4.176-10.1l1.291-3.111a7.735,7.735,0,0,1,10.1-4.176l23.083,9.577a7.735,7.735,0,0,1,4.176,10.1A11.107,11.107,0,0,1,162.467,164.067Z" transform="translate(-63.634 -46.086)" fill="#fff"/>
      <path id="Path_143" data-name="Path 143" d="M161.186,148.651l-11.365-4.715a.392.392,0,1,1,.3-.724l11.365,4.715a.392.392,0,1,1-.3.724Z" transform="translate(-63.634 -46.086)" fill="#e6e6e6"/>
      <path id="Path_144" data-name="Path 144" d="M157.984,156.369l-11.365-4.715a.392.392,0,0,1,.3-.724l11.365,4.715a.392.392,0,1,1-.3.724Z" transform="translate(-63.634 -46.086)" fill="#e6e6e6"/>
      <path id="Path_145" data-name="Path 145" d="M168.08,156.038l-19.861-8.24a.392.392,0,0,1,.3-.724l19.861,8.24a.392.392,0,0,1-.3.724Z" transform="translate(-63.634 -46.086)" fill="#f2f2f2"/>
      <path id="Path_146" data-name="Path 146" d="M118.022,134.606,89.21,122.652a1.519,1.519,0,0,1-.821-1.986L95.18,104.3a1.519,1.519,0,0,1,1.986-.821l36.34,15.077a1.519,1.519,0,0,1,.821,1.986l-3.668,8.841a9.669,9.669,0,0,1-12.636,5.225Z" transform="translate(-63.634 -46.086)" fill="#f2f2f2"/>
      <path id="Path_147" data-name="Path 147" d="M116.182,132.793,96.21,124.507a7.735,7.735,0,0,1-4.176-10.1l1.291-3.111a7.735,7.735,0,0,1,10.1-4.176l23.083,9.577a7.735,7.735,0,0,1,4.176,10.1,11.107,11.107,0,0,1-14.5,6Z" transform="translate(-63.634 -46.086)" fill="#fff"/>
      <path id="Path_148" data-name="Path 148" d="M114.9,117.377l-11.365-4.715a.392.392,0,0,1,.3-.724l11.365,4.715a.392.392,0,1,1-.3.724Z" transform="translate(-63.634 -46.086)" fill="#e6e6e6"/>
      <path id="Path_149" data-name="Path 149" d="M111.7,125.1l-11.365-4.715a.392.392,0,0,1,.3-.724L112,124.372a.392.392,0,1,1-.3.724Z" transform="translate(-63.634 -46.086)" fill="#e6e6e6"/>
      <path id="Path_150" data-name="Path 150" d="M121.795,124.764l-19.861-8.24a.392.392,0,0,1,.3-.724l19.861,8.24a.392.392,0,1,1-.3.724Z" transform="translate(-63.634 -46.086)" fill="#f2f2f2"/>
      <path id="Path_151" data-name="Path 151" d="M99.13,106.308a2.407,2.407,0,0,0-2.291-2.861l-4.373-11.17-3.387.45,5.291,13.229a2.4,2.4,0,0,0,4.76.352Z" transform="translate(-63.634 -46.086)" fill="#b5934e"/>
      <path id="Path_152" data-name="Path 152" d="M80.536,66.683s-3.462,4.661-2.1,7.326,2.223,5.268,3.119,6.108,3.484,8.98,4.468,9.409-.057,1.449,1.249,2.379,1.719,1.019,1.629,1.43,2.406,6.084,2.406,6.084l4.065-1.5-8.657-30.11Z" transform="translate(-63.634 -46.086)" fill="#dfd7be"/>
    </g>
  </g>
</svg>
