<svg xmlns="http://www.w3.org/2000/svg" width="230.867" height="189.308" viewBox="143.054 0 230.867 189.308"><g data-name="undraw_personal_email_re_4lx7"><path d="m200.038 172.738.47 9.897a6.315 6.315 0 0 1-6.009 6.608l-.205.01-.768-16.206 6.512-.31Z" fill="#3b351d" fill-rule="evenodd" data-name="Path 413"/><path d="M340.762 156.01c-4.714 9.2-10.694 18.098-18.26 26.15-.167.182-.337.36-.508.54l-17.925-8.486c.11-.182.23-.387.36-.61 7.699-13.174 54.179-93.538 52.71-111.74.171 1.502 5.68 51.146-16.377 94.147Z" fill="#dfd7be" fill-rule="evenodd" data-name="Path 414"/><path d="M325.96 183.797c-.25.143-.507.283-.766.417l-13.447-6.365c.188-.134.407-.291.659-.469 4.12-2.958 16.37-11.832 28.356-21.37 12.881-10.249 25.46-21.26 27.329-26.517-.38 1.205-12.17 37.845-42.13 54.304Z" fill="#dfd7be" fill-rule="evenodd" data-name="Path 415"/><path d="m245.509 138.144 4.643.039a3.23 3.23 0 0 0 3.216-3.744 3.23 3.23 0 0 0-4.619-2.384l-4.379 2.16-14.976 3.34-6.417-6.56-3.685 6.07 8.658 6.69 17.559-5.61Z" fill="#ffb8b8" fill-rule="evenodd" data-name="Path 417"/><path d="m244.639 186.117-5.47 1.052c-3.738-11.779-7.786-22.933-7.786-31.56-5.288 5.885-11.846 9.252-19.568 10.31l.842-13.046 6.312-3.367 9.66-4.459a7.336 7.336 0 0 1 10.318 5.502l5.692 35.568Z" fill="#3b351d" fill-rule="evenodd" data-name="Path 418"/><path d="m218.443 164.34-2.18 1.657a6.752 6.752 0 0 1-6.657.868c-6.246-4.681-10.682-3.3-14.704 3.766-4.823-5.444-6.013-13.306-1.708-21.44l23.881.526 4.84-1.473-3.472 16.096Z" fill="#3b351d" fill-rule="evenodd" data-name="Path 419"/><path d="M210.49 188.718a6.098 6.098 0 0 1-7.217-3.04c-2.146-1.89-3.957-4.597-5.528-7.888a61.052 61.052 0 0 1-2.896-7.44c-1.087-3.357.73-7.024 4.112-8.028.101-.03.203-.058.306-.085 4.515-1.16 9.152 1.445 10.695 5.844l4.488 12.79a6.098 6.098 0 0 1-3.96 7.847Z" fill="#3b351d" fill-rule="evenodd" data-name="Path 420"/><path d="M196.981 176.333s5.26 5.892 6.312 9.258" fill-rule="evenodd" data-name="Path 421"/><path d="M218.653 149.19c-6.045 10.155-18.097 14.088-28.42 6.136 1.816-5.966 7.679-22.456 3.891-23.087-8.041 3.372-8.053-4.545-9.557-8.508l18.306-6.733 9.889 2.735 2.027.72a6.853 6.853 0 0 1 4.56 6.365c-4.153 6.001-7.229 12.403-.696 22.373Z" fill="#b5934e" fill-rule="evenodd" data-name="Path 423"/><path d="m220.968 140.985-7.26-5.997 2.42-13.992 9.89 10.52-5.05 9.469Z" fill="#b5934e" fill-rule="evenodd" data-name="Path 424"/><path d="M341.42 44.862h-1.039V16.446C340.381 7.363 333.018 0 323.935 0h-60.203c-9.083 0-16.446 7.363-16.446 16.446v155.893c0 9.083 7.363 16.446 16.446 16.446h60.203c9.083 0 16.446-7.363 16.446-16.446V65.09h1.038V44.862Z" fill="#3b351d" fill-rule="evenodd" data-name="b82a9922-ead1-40af-af3b-f133b244cde7"/><path d="M324.599 4.278h-7.859a5.835 5.835 0 0 1-5.403 8.04h-34.49a5.835 5.835 0 0 1-5.402-8.039h-7.34c-6.784 0-12.283 5.499-12.283 12.282v155.664c0 6.783 5.499 12.282 12.282 12.282h60.493c6.783 0 12.282-5.5 12.282-12.282V16.56c0-6.783-5.5-12.282-12.282-12.282h.002Z" fill="#fff" fill-rule="evenodd" data-name="b2a7827b-2d2c-407d-93be-35e4c67116bc"/><path d="M287.711 168.963a6.744 6.744 0 1 1 0 .1z" fill="#dfd7be" fill-rule="evenodd" data-name="e6b07811-3d0f-4972-ba4c-46b0c6566e33"/><path d="M267.095 106.691c-.638 0-1.157.592-1.157 1.32 0 .728.52 1.32 1.157 1.32h54.511c.638 0 1.156-.592 1.156-1.32 0-.728-.518-1.32-1.156-1.32h-54.511Z" fill="#dfd7be" fill-rule="evenodd" data-name="Path 425"/><path d="M267.095 137.82c-.638 0-1.157.591-1.157 1.32 0 .727.52 1.319 1.157 1.319h54.511c.638 0 1.156-.592 1.156-1.32 0-.728-.518-1.32-1.156-1.32h-54.511Z" fill="#dfd7be" fill-rule="evenodd" data-name="Path 426"/><path d="M267.095 114.61c-.638 0-1.157.592-1.157 1.32 0 .727.52 1.32 1.157 1.32h23.456c.638 0 1.156-.593 1.156-1.32 0-.728-.518-1.32-1.156-1.32h-23.456Z" fill="#dfd7be" fill-rule="evenodd" data-name="Path 427"/><path d="M267.095 122.158c-.638 0-1.157.592-1.157 1.32 0 .727.52 1.32 1.157 1.32h54.511c.638 0 1.156-.593 1.156-1.32 0-.728-.518-1.32-1.156-1.32h-54.511Z" fill="#dfd7be" fill-rule="evenodd" data-name="Path 428"/><path d="M267.095 130.077c-.638 0-1.157.592-1.157 1.32 0 .727.52 1.32 1.157 1.32h23.456c.638 0 1.156-.593 1.156-1.32 0-.728-.518-1.32-1.156-1.32h-23.456Z" fill="#dfd7be" fill-rule="evenodd" data-name="Path 429"/><path d="M217.26 115.166h-17.938c-.769 0-1.391-.623-1.392-1.391v-7.732c0-5.722 4.638-10.36 10.36-10.36 5.722 0 10.36 4.638 10.36 10.36v7.732c0 .768-.623 1.39-1.39 1.391Z" fill="#2b2300" fill-rule="evenodd" data-name="Path 434"/><path d="M206.54 113.722a7.596 7.596 0 1 1 .087.048z" fill="#ffb6b6" fill-rule="evenodd" data-name="Ellipse 136"/><path d="M221.102 106.816h-10.968l-.113-1.575-.562 1.575h-1.689l-.223-3.121-1.115 3.121h-3.267v-.155a8.205 8.205 0 0 1 8.195-8.195h1.546a8.205 8.205 0 0 1 8.196 8.195v.155Z" fill="#2b2300" fill-rule="evenodd" data-name="Path 435"/><path d="M210.044 116.61c-.083 0-.165-.008-.246-.022l-8.032-1.417v-13.274h8.841l-.219.255c-3.045 3.552-.75 9.311.888 12.428a1.371 1.371 0 0 1-.109 1.456c-.26.36-.678.573-1.123.573Z" fill="#2b2300" fill-rule="evenodd" data-name="Path 436"/><path d="M236.784 182.145h9.91a6.315 6.315 0 0 1 6.314 6.314v.205l-16.224.001v-6.52Z" fill="#3b351d" fill-rule="evenodd" data-name="Path 437"/><path d="M373.661 189.308H143.313a.26.26 0 1 1 0-.52h230.348a.26.26 0 0 1 0 .52Z" fill="#cacaca" fill-rule="evenodd" data-name="Path 438"/><path d="M165.422 147.485c-11.443 0-20.752 9.31-20.752 20.752 0 11.443 9.309 20.752 20.752 20.752s20.752-9.309 20.752-20.752-9.309-20.752-20.752-20.752Zm-5.435 31.128c-1.25 0-2.506-.451-3.459-1.406l-.903-1.037a1.977 1.977 0 0 1 0-2.795l2.252-1.73a1.977 1.977 0 0 1 2.795 0l1.848 1.472c3.582-1.368 6.224-3.901 7.782-7.782l-1.471-1.848a1.977 1.977 0 0 1 0-2.795l1.729-2.252a1.977 1.977 0 0 1 2.795 0l1.037.903c.955.953 1.406 2.209 1.406 3.459 0 6.917-9.388 15.811-15.811 15.811ZM294.35 45.228c-11.277 0-20.45 9.173-20.45 20.45s9.173 20.451 20.45 20.451 20.451-9.174 20.451-20.45c0-11.278-9.174-20.451-20.45-20.451Zm-5.356 30.676c-1.232 0-2.47-.445-3.409-1.386l-.89-1.022a1.948 1.948 0 0 1 0-2.754l2.22-1.704c.76-.76 1.994-.76 2.754 0l1.822 1.45c3.53-1.348 6.133-3.845 7.669-7.67l-1.45-1.821a1.948 1.948 0 0 1 0-2.754l1.704-2.22c.76-.76 1.994-.76 2.754 0l1.022.89c.941.94 1.386 2.177 1.386 3.409 0 6.817-9.252 15.582-15.582 15.582Z" fill="#584d2c" fill-rule="evenodd" data-name="circle-phone-flip"/><path d="m176.58 148.53-1.76 4.296a3.23 3.23 0 0 0 2.28 4.377 3.23 3.23 0 0 0 3.93-3.403l-.38-4.868 2.463-15.146 8.475-3.52-4.267-5.677-9.427 5.554-1.314 18.386Z" fill="#ffb8b8" fill-rule="evenodd" data-name="Path 422"/></g></svg>