<svg xmlns="http://www.w3.org/2000/svg" width="166.155" height="128.25" viewBox="600.497 386.75 166.155 128.25"><g data-name="Mask Group 48" transform="translate(29.57 29.75)" clip-path="url(&quot;#a&quot;)"><g data-name="undraw_documents_re_isxv"><path d="m691.352 440.48-21.513-11.092a1.379 1.379 0 0 1-.593-1.855l1.33-2.581c.35-.676 1.18-.941 1.856-.593l21.513 11.091c.675.35.94 1.18.593 1.856l-1.33 2.58a1.384 1.384 0 0 1-1.227.747c-.22 0-.435-.053-.629-.153Z" fill="#b5934e" fill-rule="evenodd" data-name="Path 68"/><path d="M684.793 430.104a1.37 1.37 0 0 1 1.061.028l7.05 3.898a3.437 3.437 0 0 1 1.428 4.516l-.089-.043.089.043a3.44 3.44 0 0 1-4.226 1.74l-7.646-2.673a1.377 1.377 0 0 1-.703-1.817l2.273-4.965a1.369 1.369 0 0 1 .763-.727Z" fill="#3b351d" fill-rule="evenodd" data-name="Path 69"/><path d="M690.484 418.283a10.53 10.53 0 1 1 0 .1z" fill="#b5934e" fill-rule="evenodd" data-name="Ellipse 66"/><path d="M699.722 483.873V459.67c.001-.76.617-1.376 1.378-1.377h2.904c.76 0 1.376.617 1.377 1.377v24.204c0 .76-.617 1.377-1.377 1.377H701.1c-.76 0-1.377-.617-1.378-1.377Z" fill="#b5934e" fill-rule="evenodd" data-name="Path 70"/><path d="M693.426 483.873V459.67c0-.76.617-1.376 1.377-1.377h2.904c.76 0 1.377.617 1.378 1.377v24.204c-.001.76-.617 1.377-1.378 1.377h-2.904c-.76 0-1.376-.617-1.377-1.377Z" fill="#b5934e" fill-rule="evenodd" data-name="Path 71"/><path d="m701.236 422.286.01-.394c-.732-.02-1.377-.066-1.862-.42a1.21 1.21 0 0 1-.468-.892.692.692 0 0 1 .226-.57c.322-.271.84-.183 1.218-.01l.326.15-.625-4.564-.39.054.531 3.881c-.513-.15-.988-.086-1.314.19a1.076 1.076 0 0 0-.366.883 1.6 1.6 0 0 0 .63 1.195c.623.456 1.433.478 2.084.497Z" fill="#2f2e41" fill-rule="evenodd" data-name="Path 72"/><path d="M695.624 415.975h2.12v.393h-2.12v-.393z" fill="#2f2e41" fill-rule="evenodd" data-name="Rectangle 523"/><path d="M702.314 415.975h2.12v.393h-2.12v-.393z" fill="#2f2e41" fill-rule="evenodd" data-name="Rectangle 524"/><path d="m711.091 463.674-3.642-23.928a1.379 1.379 0 0 1 1.155-1.57l2.87-.436a1.379 1.379 0 0 1 1.57 1.154l3.642 23.929a1.379 1.379 0 0 1-1.155 1.569l-2.87.436a1.376 1.376 0 0 1-1.57-1.154Z" fill="#b5934e" fill-rule="evenodd" data-name="Path 73"/><path d="M708.277 448.316a1.37 1.37 0 0 1-.602-.876l-.987-7.995a3.437 3.437 0 0 1 2.816-3.808l.017.097-.017-.097a3.44 3.44 0 0 1 3.89 2.397l2.33 7.758a1.377 1.377 0 0 1-1.058 1.636l-5.353 1.077a1.369 1.369 0 0 1-1.037-.19Z" fill="#3b351d" fill-rule="evenodd" data-name="Path 74"/><path d="M708.56 465.611h-28.142a1.672 1.672 0 0 1-1.494-2.424l13.606-27.056a9.35 9.35 0 0 1 17.702 4.2v23.608a1.674 1.674 0 0 1-1.673 1.672Z" fill="#3b351d" fill-rule="evenodd" data-name="Path 75"/><path d="M701.387 409.695c-2.155.481-3.973 1.886-6.14 2.323-.989.2-2.076.19-2.983-.295a3.109 3.109 0 0 1-1.444-1.684 4.648 4.648 0 0 1 .742-4.396c1.216-1.49 3.156-2.176 5.017-2.37 3.725-.386 7.551.841 10.583 2.98 3.13 2.207 5.531 5.522 6.337 9.294.43 2.017.388 4.162-.347 6.104a7.777 7.777 0 0 1-5.221 4.735.295.295 0 0 0 .157.57 8.408 8.408 0 0 0 4.873-3.59c1.153-1.844 1.54-4.102 1.363-6.248-.344-4.152-2.627-7.968-5.818-10.58-3.066-2.51-7.033-4.036-11.02-3.915-2 .06-4.076.569-5.631 1.886a5.297 5.297 0 0 0-1.838 4.68c.089.816.413 1.588.931 2.223a3.84 3.84 0 0 0 2.465 1.273c2.358.307 4.403-1.03 6.487-1.889a10.086 10.086 0 0 1 1.645-.532c.37-.083.213-.652-.157-.57Z" fill="#3b351d" fill-rule="evenodd" data-name="Path 76"/><path d="M707.31 405.523c-.846-3.17 1.363-6.468 4.365-7.457a8.576 8.576 0 0 1 5.281.059 10.417 10.417 0 0 1 4.352 2.84c2.632 2.8 3.797 6.579 4.343 10.304.563 3.847.245 8.06 2.214 11.555.816 1.45 2.027 2.718 3.592 3.342 1.46.582 3.209.585 4.608-.172a4.42 4.42 0 0 0 .925-.676c.277-.261-.14-.678-.417-.417-1.171 1.105-2.917 1.313-4.422.88-1.642-.473-2.906-1.735-3.74-3.188-.962-1.68-1.363-3.602-1.582-5.507-.239-2.081-.33-4.173-.65-6.245-.575-3.737-1.817-7.488-4.453-10.292a11.09 11.09 0 0 0-4.383-2.917 9.292 9.292 0 0 0-5.367-.27 7.32 7.32 0 0 0-4.035 2.713 6.823 6.823 0 0 0-1.392 4.434c.025.396.09.788.192 1.171a.295.295 0 0 0 .57-.157Z" fill="#3b351d" fill-rule="evenodd" data-name="Path 77"/><path d="M591.44 432.359h-17.17a3.349 3.349 0 0 1-3.344-3.345v-68.67a3.349 3.349 0 0 1 3.345-3.344h46.57l8.523 7.61v13.837h-.394v-13.66l-8.28-7.394h-46.42a2.955 2.955 0 0 0-2.95 2.952v68.669a2.955 2.955 0 0 0 2.95 2.951h17.17v.394Z" fill="#d4ccb0" fill-rule="evenodd" data-name="Path 78"/><path d="M629.167 364.87h-5.313a3.349 3.349 0 0 1-3.345-3.345v-4.328a.197.197 0 1 1 .394 0v4.328a2.955 2.955 0 0 0 2.951 2.952h5.313a.197.197 0 0 1 0 .393Z" fill="#d4ccb0" fill-rule="evenodd" data-name="Path 79"/><path d="M622.583 374.807h-44.86a1.574 1.574 0 0 0 0 3.148h44.86a1.574 1.574 0 0 0 0-3.148Z" fill="rgba(181,147,78,0.2 )" fill-rule="evenodd" data-name="Path 80"/><path d="M599.956 368.117h-22.234a1.574 1.574 0 1 0 0 3.148h22.234a1.574 1.574 0 0 0 0-3.148Z" fill="rgba(181,147,78,0.2 )" fill-rule="evenodd" data-name="Path 81"/><path d="M577.722 387.99a1.574 1.574 0 1 0 0 3.148h14.06v-3.148h-14.06Z" fill="rgba(181,147,78,0.2 )" fill-rule="evenodd" data-name="Path 82"/><path d="M577.722 381.3a1.574 1.574 0 0 0 0 3.148h14.06V381.3h-14.06Z" fill="rgba(181,147,78,0.2 )" fill-rule="evenodd" data-name="Path 83"/><path d="M591.88 421.34h-12.6a3.25 3.25 0 0 1-3.246-3.246v-16.528a3.25 3.25 0 0 1 3.246-3.247h12.6v23.021Z" fill="rgba(181,147,78,0.2 )" fill-rule="evenodd" data-name="Path 84"/><path d="M612.198 453.51H595.03a3.349 3.349 0 0 1-3.345-3.344v-68.67a3.349 3.349 0 0 1 3.345-3.344h46.57l8.523 7.61v13.05h-.394v-12.874l-8.28-7.393H595.03a2.955 2.955 0 0 0-2.951 2.952v68.669a2.955 2.955 0 0 0 2.951 2.95h17.17v.394Z" fill="#d4ccb0" fill-rule="evenodd" data-name="Path 85"/><path d="M649.925 386.022h-5.313a3.349 3.349 0 0 1-3.345-3.345v-4.329a.197.197 0 1 1 .394 0v4.33a2.955 2.955 0 0 0 2.951 2.95h5.313a.197.197 0 1 1 0 .394Z" fill="#ccc" fill-rule="evenodd" data-name="Path 86"/><path d="M643.341 395.958h-44.86a1.574 1.574 0 1 0 0 3.148h44.86a1.574 1.574 0 1 0 0-3.148Z" fill="rgba(181,147,78,0.2 )" fill-rule="evenodd" data-name="Path 89"/><path d="M620.714 389.269H598.48a1.574 1.574 0 1 0 0 3.148h22.234a1.574 1.574 0 1 0 0-3.148Z" fill="rgba(181,147,78,0.2 )" fill-rule="evenodd" data-name="Path 90"/><path d="M598.48 409.141a1.574 1.574 0 1 0 0 3.148h14.06v-3.148h-14.06Z" fill="rgba(181,147,78,0.2 )" fill-rule="evenodd" data-name="Path 93"/><path d="M598.48 402.451a1.574 1.574 0 0 0 0 3.149h14.06v-3.149h-14.06Z" fill="rgba(181,147,78,0.2 )" fill-rule="evenodd" data-name="Path 94"/><path d="M612.639 442.492h-12.6a3.25 3.25 0 0 1-3.247-3.247v-16.527a3.25 3.25 0 0 1 3.247-3.247h12.6v23.02Z" fill="rgba(181,147,78,0.2 )" fill-rule="evenodd" data-name="Path 95"/><path d="M613.749 399.5a3.344 3.344 0 0 0-1.602 2.853v.492h.394v-.492a2.957 2.957 0 0 1 2.193-2.853h-.985Zm48.312-.492h-46.569a3.349 3.349 0 0 0-3.345 3.345v68.669a3.35 3.35 0 0 0 3.345 3.345h51.748a3.35 3.35 0 0 0 3.345-3.345v-64.403l-8.524-7.61Zm8.13 72.014a2.955 2.955 0 0 1-2.951 2.951h-51.748a2.955 2.955 0 0 1-2.951-2.951v-68.669a2.957 2.957 0 0 1 2.951-2.951h46.42l8.28 7.392v64.228ZM613.75 399.5a3.344 3.344 0 0 0-1.602 2.853v.492h.394v-.492a2.957 2.957 0 0 1 2.193-2.853h-.985Z" fill="#3b351d" fill-rule="evenodd" data-name="Path 96"/><path d="M670.388 406.878h-5.313a3.349 3.349 0 0 1-3.345-3.344v-4.33a.197.197 0 0 1 .394 0v4.33a2.955 2.955 0 0 0 2.951 2.95h5.313a.197.197 0 1 1 0 .394Z" fill="#3f3d56" fill-rule="evenodd" data-name="Path 97"/><path d="M663.805 419.963h-44.861a1.574 1.574 0 0 1 0-3.148h44.86a1.574 1.574 0 1 1 0 3.148Z" fill="rgba(181,147,78,0.2 )" fill-rule="evenodd" data-name="Path 98"/><path d="M641.177 413.273h-22.233a1.574 1.574 0 0 1 0-3.148h22.233a1.574 1.574 0 0 1 0 3.148Z" fill="rgba(181,147,78,0.2 )" fill-rule="evenodd" data-name="Path 99"/><path d="M663.805 433.146h-44.861a1.574 1.574 0 1 1 0-3.148h44.86a1.574 1.574 0 1 1 0 3.148Z" fill="rgba(181,147,78,0.2 )" fill-rule="evenodd" data-name="Path 100"/><path d="M641.177 426.456h-22.233a1.574 1.574 0 0 1 0-3.148h22.233a1.574 1.574 0 1 1 0 3.148Z" fill="rgba(181,147,78,0.2 )" fill-rule="evenodd" data-name="Path 101"/><path d="M662.214 463.348h-41.713a3.25 3.25 0 0 1-3.246-3.246v-16.528a3.25 3.25 0 0 1 3.246-3.246h41.713a3.25 3.25 0 0 1 3.247 3.246v16.528a3.25 3.25 0 0 1-3.247 3.246Z" fill="#3b351d" fill-rule="evenodd" data-name="Path 102"/></g></g><defs><clipPath id="a"><path d="M0 0h250.007v128.25H0V0z" data-name="Rectangle 522" transform="translate(529 357)"/></clipPath></defs></svg>