<svg xmlns="http://www.w3.org/2000/svg" width="229.144" height="128.25" viewBox="568.428 506.271 229.144 128.25"><g data-name="undraw_throw_away_re_x60k"><path d="M616.652 634.033h-35.008s-.71-10.408 3.489-10.526c4.198-.118 3.725 4.612 8.988-1.892 5.263-6.505 11.65-6.15 12.478-2.306.827 3.843-1.597 6.918 2.838 5.972 4.435-.946 10.822 1.538 7.215 8.752Z" fill="rgba(181,147,78,0.2 )" fill-rule="evenodd" data-name="Path 1"/><path d="m598.557 634.035-.118-.004c.275-6.852 1.71-11.255 2.866-13.742 1.254-2.7 2.463-3.793 2.475-3.804l.079.089c-.012.01-1.207 1.093-2.451 3.774-1.15 2.476-2.576 6.86-2.851 13.687Z" fill="#fff" fill-rule="evenodd" data-name="Path 2"/><path d="m611.227 634.05-.114-.034a18.346 18.346 0 0 1 4.62-7.684l.079.087a18.222 18.222 0 0 0-4.585 7.63Z" fill="#fff" fill-rule="evenodd" data-name="Path 3"/><path d="m587.158 634.041-.117-.016a12.88 12.88 0 0 0-1.159-7.529 10.366 10.366 0 0 0-1.827-2.668l.082-.085c.755.797 1.38 1.709 1.852 2.7a12.999 12.999 0 0 1 1.17 7.598Z" fill="#fff" fill-rule="evenodd" data-name="Path 4"/><path d="M621.403 634.191h-43.535l-.01-.147c-.024-.367-.58-9.02 2.224-12.108a3.071 3.071 0 0 1 2.244-1.077c1.828-.052 2.976.632 3.903 1.182 1.746 1.035 2.9 1.72 7.093-3.464 4.544-5.615 9.446-6.823 12.264-6.152 1.82.435 3.076 1.661 3.443 3.367.349 1.614.237 3.131.148 4.35-.096 1.305-.17 2.335.365 2.802.448.39 1.34.425 2.809.112 2.988-.638 7.158-.092 9.25 2.612 1.126 1.455 2.014 4.099-.155 8.436l-.043.087Zm-43.237-.316h43.04c1.616-3.278 1.667-6.048.145-8.013-1.92-2.481-5.948-3.134-8.934-2.497-1.596.34-2.547.285-3.083-.182-.655-.57-.574-1.67-.473-3.062.088-1.2.197-2.692-.142-4.262-.34-1.581-1.51-2.72-3.207-3.125-2.728-.65-7.494.542-11.944 6.043-4.366 5.396-5.681 4.616-7.5 3.536-.939-.557-2.004-1.187-3.733-1.138a2.766 2.766 0 0 0-2.019.973c-2.52 2.775-2.212 10.557-2.15 11.727Z" fill="#3b351d" fill-rule="evenodd" data-name="Path 5"/><path d="M763.649 634.367h-42.88l-.008-.24-2.047-58.557h46.99l-2.055 58.797Zm-42.399-.498h41.918l2.02-57.801H719.23l2.021 57.8Z" fill="#3b351d" fill-rule="evenodd" data-name="Path 8"/><g data-name="Group 1"><path d="M727.736 586.42h3.262v40.36h-3.262v-40.36z" fill="#3b351d" fill-rule="evenodd" data-name="Rectangle 17"/><path d="M740.578 586.42h3.262v40.36h-3.262v-40.36z" fill="#3b351d" fill-rule="evenodd" data-name="Rectangle 18"/><path d="M753.42 586.42h3.261v40.36h-3.261v-40.36z" fill="#3b351d" fill-rule="evenodd" data-name="Rectangle 19"/></g><path d="m792.953 592.765-.211-.133-53.262-33.659 4.62-7.31.21.133 53.262 33.658-4.62 7.311Zm-52.786-33.947 52.63 33.26 4.088-6.468-52.63-33.26-4.088 6.468Z" fill="#3b351d" fill-rule="evenodd" data-name="Path 106"/><path d="M780.092 556.26a9.576 9.576 0 0 0-14.595 9.48l2.54 1.604a7.555 7.555 0 1 1 7.215 4.562l2.54 1.605a9.576 9.576 0 0 0 2.303-17.25Z" fill="#3b351d" fill-rule="evenodd" data-name="Path 10"/><path d="M568.428 634.023h226.33v.498h-226.33v-.498z" fill="#3f3d56" fill-rule="evenodd" data-name="Rectangle 21"/><g data-name="Group 6"><path d="M667.285 630.625h-3.626l-1.726-13.986h5.353v13.986Z" fill="#feb8b8" fill-rule="evenodd" data-name="Path 111"/><path d="M656.666 633.992h11.396v-4.403h-7.054a4.342 4.342 0 0 0-4.342 4.342v.061Z" fill="#3b351d" fill-rule="evenodd" data-name="Path 112"/><path d="m666.01 608.952 2.502 2.626 11.317-8.398-3.692-3.875-10.126 9.647Z" fill="#feb8b8" fill-rule="evenodd" data-name="Path 113"/><path d="m671.089 612.78-4.868-5.107-3.188 3.038 7.864 8.251.044-.042a4.343 4.343 0 0 0 .148-6.14Z" fill="#3b351d" fill-rule="evenodd" data-name="Path 114"/><path d="M640.77 570.634a2.974 2.974 0 0 1 1.424-4.333l14.237-36.284 5.549 3.323-15.815 34.808a2.99 2.99 0 0 1-5.394 2.486Z" fill="#feb8b8" fill-rule="evenodd" data-name="Path 115"/><path d="M694.809 573.234a2.974 2.974 0 0 1-2.671-3.697l-21.003-32.834 5.949-2.54 18.882 33.246a2.99 2.99 0 0 1-1.157 5.826Z" fill="#feb8b8" fill-rule="evenodd" data-name="Path 116"/><path d="m656.57 567 3.718 55.254 8.885-.784 1.829-40.765 4.965 17.508 10.713.783-4.24-34.609L656.57 567Z" fill="#3b351d" fill-rule="evenodd" data-name="Path 117"/><path d="m677.534 595.6-1.568 2.613-10.974 7.578 7.84 4.18s15.155-8.361 13.848-10.974l-9.146-3.397Z" fill="#3b351d" fill-rule="evenodd" data-name="Path 118"/><path d="m648.79 544.645 3.094-8.714a15.56 15.56 0 0 1 8.05-8.881 22.266 22.266 0 0 1 13.068-.715l1.125.279a21.753 21.753 0 0 1 8.249 3.984c1.905 1.502 3.62 3.404 3.772 5.45a.06.06 0 0 0 .004.013c.528 2.314.79 14.334.79 14.334h-4.657l.737 16.2-.06-.117s-26.855 5.082-26.855 2.47v-16.725l-.55-6.055-6.766-1.523Z" fill="#b5934e" fill-rule="evenodd" data-name="Path 119"/><path d="M666.415 516.527a7.442 7.442 0 1 1 0 .1z" fill="#feb8b8" fill-rule="evenodd" data-name="Ellipse 12"/><path d="m674.972 513.29 5.778.231c.727-.002 1.521-.027 2.075-.497.834-.71.694-2.048.248-3.048-1.245-2.785-4.022-3.782-7.072-3.7-3.049.082-6.244 1.115-7.886 3.685-1.642 2.57-2.086 5.814-1.468 8.8a9.594 9.594 0 0 1 7.846-5.47l.479-.001Z" fill="#3b351d" fill-rule="evenodd" data-name="Path 120"/></g><g data-name="Group 4"><path d="m709.286 586.083-20.916-14.659a.898.898 0 0 1-.22-1.248l16.417-23.423a.898.898 0 0 1 1.249-.22l20.915 14.659a.898.898 0 0 1 .22 1.248l-16.416 23.423a.898.898 0 0 1-1.25.22Z" fill="#3b351d" fill-rule="evenodd" data-name="Path 81"/><path d="m713.99 570.177-12.273-8.601a1.32 1.32 0 0 1 1.515-2.162l12.272 8.602a1.32 1.32 0 1 1-1.515 2.161Z" fill="#fff" fill-rule="evenodd" data-name="Path 82"/><path d="m711.173 574.196-12.273-8.601a1.32 1.32 0 1 1 1.515-2.162l12.273 8.602a1.32 1.32 0 1 1-1.515 2.161Z" fill="#fff" fill-rule="evenodd" data-name="Path 83"/><path d="m708.326 578.258-12.273-8.601a1.32 1.32 0 1 1 1.515-2.162l12.273 8.602a1.32 1.32 0 1 1-1.515 2.161Z" fill="#fff" fill-rule="evenodd" data-name="Path 84"/><path d="m713.955 562.227-4.754-3.331a1.32 1.32 0 0 1 1.515-2.162l4.754 3.332a1.32 1.32 0 1 1-1.515 2.161Z" fill="#fff" fill-rule="evenodd" data-name="Path 85"/></g></g></svg>